<svg width="73" height="50" viewBox="0 0 73 50" fill="none" xmlns="http://www.w3.org/2000/svg">
<path d="M13.4971 34.5833H59.4857M47.9885 3.91667H62.805C64.9739 3.91667 67.0539 4.77847 68.5876 6.3125C70.1212 7.84653 70.9828 9.92711 70.9828 12.0966V32.464C70.9828 38.845 71.6136 48 65.2342 48H10.1706C8.00167 48 5.92888 47.1382 4.39524 45.6042C2.86159 44.0701 2 41.9896 2 39.8201V12.0966C2 9.92711 2.86159 7.84653 4.39524 6.3125C5.92888 4.77847 8.00895 3.91667 10.1778 3.91667H23.0781M35.5333 2V26.9167M35.5333 26.9167L26.9105 18.2917M35.5333 26.9167L44.1562 18.2917" stroke="white" stroke-width="3" stroke-linecap="round" stroke-linejoin="round"/>
</svg>
