<svg width="73" height="50" viewBox="0 0 73 50" fill="none" xmlns="http://www.w3.org/2000/svg">
<path d="M59.5029 15.4167L13.5143 15.4167M25.0115 46.0833L10.195 46.0833C8.02614 46.0833 5.94608 45.2215 4.41244 43.6875C2.87879 42.1535 2.0172 40.0729 2.0172 37.9034L2.0172 17.536C2.0172 11.155 1.38637 2 7.76577 2L62.8294 2C64.9983 2 67.0711 2.86181 68.6048 4.39584C70.1384 5.92986 71 8.01045 71 10.1799L71 37.9034C71 40.0729 70.1384 42.1535 68.6048 43.6875C67.0711 45.2215 64.9911 46.0833 62.8222 46.0833L49.9219 46.0833M37.4667 48L37.4667 23.0833M37.4667 23.0833L46.0895 31.7083M37.4667 23.0833L28.8438 31.7083" stroke="white" stroke-width="3" stroke-linecap="round" stroke-linejoin="round"/>
</svg>



